<svg xmlns="http://www.w3.org/2000/svg" viewBox="0 0 1000 600">
  <!-- Background and styling -->
  <defs>
    <linearGradient id="headerGradient" x1="0%" y1="0%" x2="100%" y2="0%">
      <stop offset="0%" style="stop-color:#2C3E50"/>
      <stop offset="100%" style="stop-color:#4CA1AF"/>
    </linearGradient>
    <filter id="shadow" x="-0.5" y="-0.5" width="200%" height="200%">
      <feOffset result="offOut" in="SourceGraphic" dx="2" dy="2" />
      <feGaussianBlur result="blurOut" in="offOut" stdDeviation="2" />
      <feBlend in="SourceGraphic" in2="blurOut" mode="normal" />
    </filter>
    <marker id="arrow" markerWidth="10" markerHeight="10" refX="9" refY="3" orient="auto" markerUnits="strokeWidth">
      <path d="M0,0 L0,6 L9,3 z" fill="#555"/>
    </marker>
  </defs>

  <!-- Title bar -->
  <rect x="0" y="0" width="1000" height="50" fill="url(#headerGradient)"/>
  <text x="500" y="32" font-family="Arial" font-size="20" font-weight="bold" text-anchor="middle" fill="white">MaintKG: Automated Maintenance Knowledge Graph Construction Workflow</text>

  <!-- Stage 1: Data Ingestion -->
  <rect x="50" y="80" width="180" height="120" rx="10" ry="10" fill="#F5F5F5" stroke="#333" stroke-width="1.5"/>
  <text x="140" y="102" font-family="Arial" font-size="14" font-weight="bold" text-anchor="middle">1. Data Ingestion</text>
  <rect x="70" y="110" width="140" height="80" rx="5" ry="5" fill="white" stroke="#888" stroke-width="1"/>
  <text x="140" y="130" font-family="Arial" font-size="11" text-anchor="middle">CMMS Records</text>
  <text x="140" y="148" font-family="Arial" font-size="11" text-anchor="middle">Column Mapping</text>
  <text x="140" y="166" font-family="Arial" font-size="11" text-anchor="middle">Metadata Extraction</text>
  <text x="140" y="184" font-family="Arial" font-size="11" text-anchor="middle">Initial Cleaning</text>

  <!-- Stage 2: Text Preprocessing -->
  <rect x="280" y="80" width="180" height="120" rx="10" ry="10" fill="#F5F5F5" stroke="#333" stroke-width="1.5"/>
  <text x="370" y="102" font-family="Arial" font-size="14" font-weight="bold" text-anchor="middle">2. Text Preprocessing</text>
  <rect x="300" y="110" width="140" height="80" rx="5" ry="5" fill="white" stroke="#888" stroke-width="1"/>
  <text x="370" y="130" font-family="Arial" font-size="11" text-anchor="middle">Non-semantic Code Removal</text>
  <text x="370" y="148" font-family="Arial" font-size="11" text-anchor="middle">Terminology Normalization</text>
  <text x="370" y="166" font-family="Arial" font-size="11" text-anchor="middle">Character Standardization</text>
  <text x="370" y="184" font-family="Arial" font-size="11" text-anchor="middle">Token Replacement</text>

  <!-- Stage 3: Information Extraction -->
  <rect x="510" y="80" width="180" height="120" rx="10" ry="10" fill="#D4F1F9" stroke="#333" stroke-width="1.5"/>
  <text x="600" y="102" font-family="Arial" font-size="14" font-weight="bold" text-anchor="middle">3. NoisIE Model</text>
  <rect x="530" y="110" width="140" height="80" rx="5" ry="5" fill="white" stroke="#888" stroke-width="1"/>
  <text x="600" y="130" font-family="Arial" font-size="11" text-anchor="middle">Sequence-to-Sequence</text>
  <text x="600" y="148" font-family="Arial" font-size="11" text-anchor="middle">Entity Recognition</text>
  <text x="600" y="166" font-family="Arial" font-size="11" text-anchor="middle">Relation Extraction</text>
  <text x="600" y="184" font-family="Arial" font-size="11" text-anchor="middle">Term Normalization</text>

  <!-- Stage 4: Knowledge Refinement -->
  <rect x="740" y="80" width="180" height="120" rx="10" ry="10" fill="#F5F5F5" stroke="#333" stroke-width="1.5"/>
  <text x="830" y="102" font-family="Arial" font-size="14" font-weight="bold" text-anchor="middle">4. Knowledge Refinement</text>
  <rect x="760" y="110" width="140" height="80" rx="5" ry="5" fill="white" stroke="#888" stroke-width="1"/>
  <text x="830" y="130" font-family="Arial" font-size="11" text-anchor="middle">Triple Validation</text>
  <text x="830" y="148" font-family="Arial" font-size="11" text-anchor="middle">Entity Normalization</text>
  <text x="830" y="166" font-family="Arial" font-size="11" text-anchor="middle">Gazetteer Enhancement</text>
  <text x="830" y="184" font-family="Arial" font-size="11" text-anchor="middle">PMI Calculation</text>

  <!-- Stage 5: Graph Construction -->
  <rect x="280" y="240" width="180" height="120" rx="10" ry="10" fill="#E6F7FF" stroke="#333" stroke-width="1.5"/>
  <text x="370" y="262" font-family="Arial" font-size="14" font-weight="bold" text-anchor="middle">5. Graph Construction</text>
  <rect x="300" y="270" width="140" height="80" rx="5" ry="5" fill="white" stroke="#888" stroke-width="1"/>
  <text x="370" y="290" font-family="Arial" font-size="11" text-anchor="middle">Node Creation</text>
  <text x="370" y="308" font-family="Arial" font-size="11" text-anchor="middle">Relationship Mapping</text>
  <text x="370" y="326" font-family="Arial" font-size="11" text-anchor="middle">Property Assignment</text>
  <text x="370" y="344" font-family="Arial" font-size="11" text-anchor="middle">Statistical Filtering</text>

  <!-- Stage 6: Neo4j Integration -->
  <rect x="510" y="240" width="180" height="120" rx="10" ry="10" fill="#F5F5F5" stroke="#333" stroke-width="1.5"/>
  <text x="600" y="262" font-family="Arial" font-size="14" font-weight="bold" text-anchor="middle">6. Neo4j Integration</text>
  <rect x="530" y="270" width="140" height="80" rx="5" ry="5" fill="white" stroke="#888" stroke-width="1"/>
  <text x="600" y="290" font-family="Arial" font-size="11" text-anchor="middle">Database Initialization</text>
  <text x="600" y="308" font-family="Arial" font-size="11" text-anchor="middle">Cypher Creation</text>
  <text x="600" y="326" font-family="Arial" font-size="11" text-anchor="middle">Batch Import</text>
  <text x="600" y="344" font-family="Arial" font-size="11" text-anchor="middle">Index Configuration</text>

  <!-- Stage 7: Query Interface -->
  <rect x="740" y="240" width="180" height="120" rx="10" ry="10" fill="#F5F5F5" stroke="#333" stroke-width="1.5"/>
  <text x="830" y="262" font-family="Arial" font-size="14" font-weight="bold" text-anchor="middle">7. Query Interface</text>
  <rect x="760" y="270" width="140" height="80" rx="5" ry="5" fill="white" stroke="#888" stroke-width="1"/>
  <text x="830" y="290" font-family="Arial" font-size="11" text-anchor="middle">Pattern Matching</text>
  <text x="830" y="308" font-family="Arial" font-size="11" text-anchor="middle">Temporal Analysis</text>
  <text x="830" y="326" font-family="Arial" font-size="11" text-anchor="middle">Root Cause Analysis</text>
  <text x="830" y="344" font-family="Arial" font-size="11" text-anchor="middle">Statistical Inference</text>

  <!-- Data structures -->
  <rect x="50" y="400" width="900" height="140" rx="10" ry="10" fill="#F8F8F8" stroke="#333" stroke-width="1"/>
  <text x="500" y="422" font-family="Arial" font-size="14" font-weight="bold" text-anchor="middle">Data Transformation Flow</text>
  
  <!-- Data structure evolution -->
  <rect x="70" y="440" width="140" height="60" rx="5" ry="5" fill="#FFE4B5" stroke="#888" stroke-width="1"/>
  <text x="140" y="470" font-family="Arial" font-size="11" text-anchor="middle">Raw Text Records</text>
  <text x="140" y="488" font-family="Arial" font-size="9" font-style="italic" text-anchor="middle">"replace bearing oil seal"</text>
  
  <rect x="238" y="440" width="140" height="60" rx="5" ry="5" fill="#E0FFFF" stroke="#888" stroke-width="1"/>
  <text x="308" y="460" font-family="Arial" font-size="11" text-anchor="middle">Preprocessed Text</text>
  <text x="308" y="478" font-family="Arial" font-size="9" font-style="italic" text-anchor="middle">"replace bearing oil seal"</text>
  <text x="308" y="488" font-family="Arial" font-size="9" font-style="italic" text-anchor="middle">(normalized, standardized)</text>
  
  <rect x="406" y="440" width="140" height="60" rx="5" ry="5" fill="#E6E6FA" stroke="#888" stroke-width="1"/>
  <text x="476" y="457" font-family="Arial" font-size="11" text-anchor="middle">Semantic Triples</text>
  <text x="476" y="472" font-family="Arial" font-size="8" font-style="italic" text-anchor="middle">("replace", "Activity", "bearing", </text>
  <text x="476" y="484" font-family="Arial" font-size="8" font-style="italic" text-anchor="middle">"Object", "HAS_PATIENT")</text>
  <text x="476" y="496" font-family="Arial" font-size="8" font-style="italic" text-anchor="middle">("bearing", "Object", "oil seal",</text>
  
  <rect x="574" y="440" width="140" height="60" rx="5" ry="5" fill="#E0FFE0" stroke="#888" stroke-width="1"/>
  <text x="644" y="457" font-family="Arial" font-size="11" text-anchor="middle">Refined Knowledge</text>
  <text x="644" y="472" font-family="Arial" font-size="8" font-style="italic" text-anchor="middle">("replace", "Activity/Maintenance",</text>
  <text x="644" y="484" font-family="Arial" font-size="8" font-style="italic" text-anchor="middle">"bearing", "Object/Component",</text>
  <text x="644" y="496" font-family="Arial" font-size="8" font-style="italic" text-anchor="middle">"HAS_PATIENT", {pmi: 0.82})</text>
  
  <rect x="742" y="440" width="180" height="60" rx="5" ry="5" fill="#F0F0FF" stroke="#888" stroke-width="1"/>
  <text x="832" y="457" font-family="Arial" font-size="11" text-anchor="middle">Neo4j Knowledge Graph</text>
  <text x="832" y="476" font-family="Arial" font-size="9" font-style="italic" text-anchor="middle">Queryable Graph Structure with</text>
  <text x="832" y="488" font-family="Arial" font-size="9" font-style="italic" text-anchor="middle">Nodes, Relationships, Properties</text>

  <!-- Connection arrows -->
  <line x1="230" y1="140" x2="280" y2="140" stroke="#555" stroke-width="2" marker-end="url(#arrow)"/>
  <line x1="460" y1="140" x2="510" y2="140" stroke="#555" stroke-width="2" marker-end="url(#arrow)"/>
  <line x1="690" y1="140" x2="740" y2="140" stroke="#555" stroke-width="2" marker-end="url(#arrow)"/>
  <line x1="830" y1="200" x2="830" y2="220" stroke="#555" stroke-width="2"/>
  <line x1="830" y1="220" x2="370" y2="220" stroke="#555" stroke-width="2"/>
  <line x1="370" y1="220" x2="370" y2="240" stroke="#555" stroke-width="2" marker-end="url(#arrow)"/>
  <line x1="460" y1="300" x2="510" y2="300" stroke="#555" stroke-width="2" marker-end="url(#arrow)"/>
  <line x1="690" y1="300" x2="740" y2="300" stroke="#555" stroke-width="2" marker-end="url(#arrow)"/>
  
  <!-- Data flow arrows -->
  <line x1="210" y1="470" x2="238" y2="470" stroke="#555" stroke-width="2" marker-end="url(#arrow)"/>
  <line x1="378" y1="470" x2="406" y2="470" stroke="#555" stroke-width="2" marker-end="url(#arrow)"/>
  <line x1="546" y1="470" x2="574" y2="470" stroke="#555" stroke-width="2" marker-end="url(#arrow)"/>
  <line x1="714" y1="470" x2="742" y2="470" stroke="#555" stroke-width="2" marker-end="url(#arrow)"/>

  <!-- Annotation bubbles -->
  <circle cx="600" y="580" r="10" fill="#E6F7FF" stroke="#333" stroke-width="1"/>
  <text x="630" y="584" font-family="Arial" font-size="12" text-anchor="start">Key Processing Component</text>
  
  <circle cx="780" y="580" r="10" fill="#F5F5F5" stroke="#333" stroke-width="1"/>
  <text x="810" y="584" font-family="Arial" font-size="12" text-anchor="start">Standard Pipeline Stage</text>
</svg>